<svg version="1.1" id="Layer_1" xmlns="http://www.w3.org/2000/svg" xmlns:xlink="http://www.w3.org/1999/xlink" x="0px" y="0px"
	 width="100%" viewBox="0 0 544 544" enable-background="new 0 0 544 544" xml:space="preserve">
<path fill="#000000" opacity="1.000000" stroke="none" 
	d="
M273.156464,448.153442 
	C280.525116,440.455261 287.649597,433.000214 294.634430,425.454193 
	C302.588257,416.861267 311.630005,409.625092 320.380371,401.997986 
	C323.345215,399.413757 325.421204,396.588776 325.980408,392.395813 
	C327.936951,377.726074 333.479797,363.954071 339.605408,350.809723 
	C346.440094,336.143860 353.902893,321.496704 364.519684,308.920044 
	C365.737061,307.477966 366.581055,306.181976 366.243378,304.033936 
	C363.404480,285.976105 361.642090,267.761841 357.087158,249.961258 
	C355.134705,242.331161 352.501862,236.617081 344.630188,232.945770 
	C331.473175,226.809372 321.693024,216.736557 316.227661,202.898285 
	C314.076447,197.451370 314.627319,194.127304 318.386292,192.721588 
	C321.926758,191.397598 324.859589,193.254410 326.697784,198.334595 
	C335.413422,222.421539 369.024170,235.380295 390.199188,225.644058 
	C403.768097,219.405075 413.373749,204.121307 405.917114,187.111359 
	C399.568756,172.629562 388.614227,162.298111 375.696320,154.077591 
	C365.991058,147.901489 356.522644,141.495743 347.647675,134.200439 
	C346.758240,133.469284 345.939728,132.607529 345.251068,131.684906 
	C343.346588,129.133408 342.981293,126.508911 345.317474,123.990242 
	C347.759033,121.357986 350.652161,121.889572 352.956177,123.763161 
	C356.565216,126.698013 360.696259,128.945541 363.892090,132.438675 
	C368.833344,137.839569 375.854126,140.198547 381.777863,144.186478 
	C395.811890,153.634369 408.977478,164.469910 415.180389,180.286484 
	C420.711792,194.390686 430.750641,204.695389 439.224976,216.399185 
	C447.526642,227.864517 454.418335,239.962601 459.811981,253.207336 
	C467.912842,273.100006 470.648560,293.963287 473.406433,314.859009 
	C475.800262,332.996399 474.520142,351.053192 469.791931,368.832794 
	C466.716644,380.396820 464.633728,392.212341 459.010681,403.016632 
	C454.078918,412.492584 447.396179,420.421234 439.107880,426.956451 
	C422.243317,440.253754 402.174866,446.260956 381.861053,451.713074 
	C359.825012,457.627411 337.294739,459.735504 314.630554,459.882355 
	C303.838898,459.952301 292.995117,459.408081 282.175690,459.112305 
	C279.526001,459.039856 277.330444,459.504120 275.354645,461.400421 
	C259.361664,476.750031 240.211929,480.622589 218.994614,476.657318 
	C209.878006,474.953552 200.927948,473.491547 192.990677,467.470703 
	C186.215225,462.331177 183.172607,455.884949 181.926590,448.223236 
	C181.395081,444.955078 180.235443,444.105530 177.228699,444.012451 
	C161.794601,443.534637 146.702866,440.987671 132.573151,434.599854 
	C107.243851,423.148926 88.670525,398.550903 90.358330,368.277771 
	C91.660217,344.926422 97.203094,322.691986 103.927895,300.473145 
	C108.685532,284.753906 115.481880,270.018982 122.562813,255.363602 
	C125.429955,249.429459 129.113480,243.772171 134.638504,239.738480 
	C138.693863,236.777710 137.682999,233.153564 136.043198,229.479126 
	C132.885757,222.404022 130.765427,215.056259 130.841660,207.274567 
	C131.077042,183.249023 141.042755,163.943359 159.607437,148.939575 
	C161.824417,147.147827 163.515182,145.488327 164.076935,142.298203 
	C164.849792,137.909088 168.758087,134.973862 171.737473,132.124481 
	C184.866302,119.568535 200.119186,110.530540 217.491928,104.642563 
	C236.269241,98.278542 255.359192,96.158936 275.017609,96.744637 
	C288.125061,97.135162 300.753571,99.616692 313.294281,103.203133 
	C321.972748,105.685043 330.290192,108.936142 338.454834,112.740303 
	C342.191956,114.481529 344.422119,116.897881 342.897552,120.864822 
	C341.346832,124.899818 337.860382,124.683716 334.481659,123.133293 
	C320.480560,116.708344 305.886566,112.152931 290.670532,109.867615 
	C271.728119,107.022629 252.900253,107.527390 234.111679,111.869392 
	C218.135590,115.561447 203.564163,122.122581 190.142944,131.334259 
	C186.465179,133.858505 182.694595,136.679489 180.034027,140.176437 
	C170.321747,152.941849 158.273804,163.957489 150.101257,177.769302 
	C142.713318,190.255096 140.199768,204.117081 144.390167,218.597946 
	C146.250351,225.026199 148.409500,231.203690 152.603745,236.644089 
	C154.454376,239.044571 155.931046,239.695343 158.781631,239.021225 
	C162.983582,238.027527 167.285507,237.309708 171.585388,236.904984 
	C183.558899,235.778000 194.682770,238.786224 205.073639,244.581558 
	C207.109039,245.716766 208.753845,245.503189 210.726959,244.827225 
	C230.366577,238.098984 250.422638,238.956345 270.434631,242.253021 
	C279.892731,243.811111 287.565704,249.089828 293.588135,256.749420 
	C295.462311,259.133087 294.863861,261.764496 295.525116,264.627777 
	C304.633911,265.464478 313.366608,263.634857 322.042572,261.317047 
	C323.328827,260.973419 324.568176,260.426056 325.867889,260.166351 
	C329.677948,259.405060 332.569244,260.783722 333.731812,264.510406 
	C334.893890,268.235413 332.279968,270.078461 329.326752,271.216125 
	C321.923340,274.068207 314.048279,274.436523 306.274811,275.257660 
	C294.875977,276.461853 283.376617,276.775787 272.612915,281.676025 
	C261.984406,286.514740 256.953705,295.639923 259.225983,307.141968 
	C259.707733,309.580475 261.006775,311.386292 262.869202,312.911163 
	C277.737152,325.084106 294.118713,329.507294 312.698700,322.648407 
	C316.315247,321.313324 319.028839,322.548920 320.567780,325.827301 
	C322.092102,329.074554 320.077209,331.238403 317.462494,332.793274 
	C312.474579,335.759491 306.838959,336.605133 301.225494,337.324371 
	C293.894135,338.263733 293.748474,338.325500 293.340790,345.910522 
	C293.171875,349.053619 293.401520,352.213501 292.153046,355.267120 
	C290.295074,359.811401 287.022125,361.711517 282.275574,360.863556 
	C271.307281,358.904205 260.362274,356.969116 249.176468,356.470734 
	C244.611954,356.267303 240.230621,357.147644 235.752472,357.332977 
	C232.517105,357.466888 233.261368,359.676819 234.059464,361.685272 
	C235.902664,366.323822 237.970459,370.895874 238.207520,376.004578 
	C238.757126,387.849548 231.942368,395.837097 224.122833,403.435486 
	C218.404388,408.992096 211.342728,411.782990 203.939865,413.829651 
	C200.133698,414.881958 198.052841,416.993286 196.899292,420.656036 
	C194.266006,429.017334 193.554291,437.641388 193.413055,446.290314 
	C193.290359,453.803894 198.424744,458.412842 204.512070,460.827271 
	C220.378601,467.120483 236.806686,469.020477 253.116348,462.580566 
	C260.728394,459.574982 266.869934,453.922150 273.156464,448.153442 
M393.981995,278.539215 
	C398.977875,281.821136 399.366943,284.078918 395.532593,288.441193 
	C384.437622,301.063721 373.945312,314.264801 364.937592,328.357300 
	C355.573517,343.007294 347.664124,358.639069 342.327209,375.389709 
	C340.612213,380.772369 338.477844,385.946075 338.065796,391.725800 
	C337.676727,397.182983 336.660431,402.618683 335.586426,407.997192 
	C334.521820,413.328613 332.316895,414.682556 327.173706,413.483459 
	C325.909454,413.188690 324.861847,412.970612 324.011566,413.998840 
	C321.118958,417.496704 317.177765,419.801331 313.790405,422.705658 
	C309.112671,426.716400 305.426056,431.621704 300.759003,435.623108 
	C296.986389,438.857574 293.954712,442.956207 290.195099,447.112946 
	C291.743011,447.508911 292.354340,447.793335 292.970520,447.804260 
	C308.577698,448.080048 324.154236,449.803650 339.774200,446.895935 
	C354.307068,444.190582 369.273193,443.760193 383.526062,439.582306 
	C395.811310,435.981171 407.860596,431.645172 419.416870,425.945343 
	C432.596924,419.444611 442.814240,409.828705 449.166290,396.828766 
	C456.839630,381.124634 459.495514,363.884827 461.789917,346.705475 
	C463.839142,331.361450 461.724945,316.176941 459.733948,300.965454 
	C457.609955,284.737946 454.375458,268.878998 447.857635,253.756500 
	C441.269653,238.471100 431.935913,225.006775 421.330627,212.329056 
	C420.719391,211.598373 420.091003,210.685165 418.464661,211.124435 
	C409.113617,233.371735 390.649078,241.514099 367.094757,241.474396 
	C370.761780,258.753296 374.545929,274.949799 376.470337,292.232727 
	C380.157562,288.127899 383.014862,284.670593 386.182312,281.525665 
	C388.048523,279.672729 390.299255,278.069000 393.981995,278.539215 
M222.309265,388.738037 
	C229.283249,381.011322 226.621735,370.017395 222.116882,363.754486 
	C215.043427,353.920471 205.375916,348.861725 193.075073,349.212585 
	C190.248230,349.293243 187.405334,349.239014 184.586075,349.028748 
	C182.087662,348.842468 178.968307,348.599640 178.110413,346.059326 
	C176.579529,341.526245 172.956116,340.784882 169.239136,339.956238 
	C164.933197,338.996307 161.687729,337.168274 160.074387,332.597748 
	C159.019379,329.608917 156.848694,327.013947 154.695724,323.443146 
	C153.855652,328.994568 148.962051,329.126251 146.538101,331.956024 
	C139.022995,340.729279 135.975479,351.204224 136.344482,362.462921 
	C136.542862,368.515381 138.181458,374.464813 142.129593,379.641754 
	C147.560333,386.762817 154.632523,391.304901 162.587692,395.051208 
	C170.917099,398.973785 179.284958,402.868683 188.483109,403.710114 
	C202.038986,404.950287 213.213531,399.855347 222.309265,388.738037 
M219.255753,306.382050 
	C220.796677,317.423981 224.614960,327.982452 226.097534,339.050293 
	C227.015060,345.899872 227.243515,346.056793 234.318420,345.752289 
	C247.785095,345.172607 261.212219,344.677460 274.522064,347.648254 
	C277.363586,348.282471 280.623016,348.872650 281.599304,344.474182 
	C282.835754,338.903503 281.799103,336.187775 277.520355,334.321136 
	C274.015717,332.792236 270.333466,331.488220 267.157562,329.426025 
	C260.496124,325.100555 253.167206,321.216888 249.784668,313.449188 
	C243.802582,299.711792 251.657791,279.567017 265.039642,272.775757 
	C271.255310,269.621277 277.955780,267.753784 284.266418,265.171814 
	C283.289520,259.158417 276.893250,255.401718 270.416321,253.960556 
	C252.522552,249.979019 234.472549,249.125748 216.665024,254.878311 
	C209.795654,257.097382 209.344940,257.923706 210.779968,264.986938 
	C213.527161,278.508698 216.354416,292.014160 219.255753,306.382050 
M169.172653,410.441589 
	C159.483231,406.837219 150.113113,402.640930 141.947830,396.122345 
	C131.028992,387.405487 124.930916,375.834167 124.841179,362.143951 
	C124.732162,345.514038 129.597122,330.369904 143.476807,319.506714 
	C144.868683,318.417297 145.470047,316.923798 144.984818,314.874054 
	C138.883972,313.254761 132.437866,312.521912 128.599136,306.041138 
	C125.183647,300.274933 122.903381,294.242737 121.728897,287.296570 
	C119.694870,289.536682 119.015381,291.751923 118.065582,293.858185 
	C114.619781,301.499695 113.545547,309.832489 110.914825,317.722168 
	C104.495621,336.973785 101.711891,356.834839 102.300583,377.120453 
	C102.671082,389.887451 108.412651,400.584412 116.843040,409.588104 
	C127.537125,421.009399 141.561905,426.615875 156.613220,429.854889 
	C163.771942,431.395477 170.999390,432.430115 178.325577,432.709076 
	C180.670700,432.798370 182.713242,432.417206 183.141922,429.588135 
	C183.832016,425.033783 185.256653,420.576050 185.189560,415.724396 
	C179.999527,414.003052 174.964874,412.333221 169.172653,410.441589 
M178.060074,330.374390 
	C189.786987,333.651154 201.513901,336.927887 213.221817,340.199341 
	C214.621353,336.676727 214.023651,333.808746 213.484238,331.111145 
	C208.630829,306.839020 203.567551,282.608795 198.744949,258.330688 
	C197.796524,253.556107 195.044678,251.396423 190.620026,250.157715 
	C177.413300,246.460464 164.580170,248.950409 151.760605,252.098770 
	C150.049744,252.518921 147.715897,252.780441 147.723099,255.092896 
	C147.730469,257.459473 150.188080,257.312439 151.803146,258.011780 
	C158.515472,260.918274 165.972687,263.425476 169.400208,270.312439 
	C175.065842,281.696533 177.966858,298.532837 165.278107,310.468536 
	C164.400330,311.294250 163.870575,312.195862 163.930435,313.520172 
	C164.240479,320.379059 170.864914,328.677521 178.060074,330.374390 
M134.229584,286.545898 
	C134.098755,289.409760 134.645309,292.159393 135.601883,294.845612 
	C137.878098,301.237549 142.959854,303.439392 149.170425,303.836121 
	C153.981674,304.143463 158.120331,302.599335 160.687332,298.370575 
	C166.496155,288.801422 160.745331,273.281738 150.201035,269.709442 
	C144.240021,267.689880 140.951157,268.960083 137.722290,274.401764 
	C135.649887,277.894379 134.299011,281.579010 134.229584,286.545898 
z"/>
<path fill="#000000" opacity="1.000000" stroke="none" 
	d="
M255.394531,226.547241 
	C243.656036,228.413803 232.452377,228.720871 221.644730,224.021591 
	C220.685043,223.604279 219.774078,223.482025 218.768570,223.924194 
	C211.301971,227.207581 203.391571,226.160782 195.607956,226.195007 
	C189.476913,226.221970 185.118118,223.221481 182.731003,217.642212 
	C181.162262,213.975662 182.590591,210.900284 186.003601,209.309921 
	C189.159515,207.839310 192.492249,208.303146 193.934586,211.980728 
	C194.864410,214.351532 196.308411,214.927109 198.470047,214.914917 
	C200.301895,214.904572 202.135132,214.979370 203.965744,214.934753 
	C214.112564,214.687424 216.475876,210.494751 211.583054,201.415726 
	C211.111496,200.540710 210.425293,199.782959 209.933823,198.916824 
	C208.265198,195.976181 206.689240,193.039108 208.695358,189.565521 
	C210.719513,186.060760 214.206329,186.228912 217.477219,186.041702 
	C219.109985,185.948273 220.769424,186.477905 222.426010,186.610947 
	C225.828033,186.884155 228.695251,188.147766 229.888702,191.502762 
	C231.024948,194.696960 228.738174,196.765610 226.781693,198.850006 
	C222.133209,203.802505 224.433365,214.100128 231.032440,215.487717 
	C242.976913,217.999329 254.844101,218.017715 265.420685,210.347488 
	C268.313751,208.249420 271.355103,207.761429 273.803650,210.871567 
	C275.894897,213.527878 274.706421,218.459656 271.526794,220.597229 
	C266.780426,223.788132 261.671173,226.165390 255.394531,226.547241 
z"/>
<path fill="#000000" opacity="1.000000" stroke="none" 
	d="
M265.602295,192.376221 
	C262.416840,195.753922 259.032806,196.520645 255.971405,193.248672 
	C253.757050,190.882034 254.344589,188.032089 256.659698,185.737976 
	C258.556549,183.858337 260.758514,183.843216 263.047333,184.934723 
	C266.173767,186.425720 266.583893,188.990799 265.602295,192.376221 
z"/>
<path fill="#000000" opacity="1.000000" stroke="none" 
	d="
M189.765915,196.917297 
	C186.968063,196.968048 185.167694,195.706802 184.238220,193.672287 
	C183.011490,190.987137 183.538330,188.312103 186.106567,186.662323 
	C188.572647,185.078156 191.329620,185.201859 193.296875,187.533630 
	C195.166077,189.749146 195.382370,192.461914 193.462616,194.819229 
	C192.689789,195.768219 191.271500,196.191574 189.765915,196.917297 
z"/>
</svg>